<svg xmlns="http://www.w3.org/2000/svg" xmlns:xlink="http://www.w3.org/1999/xlink" version="1.1" xml:space="preserve" viewBox="5.86 291.05 585.11 59.09">
<desc>Created with Fabric.js 5.3.0</desc>
<defs>
</defs>
<g transform="matrix(0.5909084866 0 0 0.5909084866 163.0129613878 314.1602617007)" id="9UoLHSUHs2vZc_25_ydHS">
<path style="stroke: none; stroke-width: 1; stroke-dasharray: none; stroke-linecap: butt; stroke-dashoffset: 0; stroke-linejoin: miter; stroke-miterlimit: 4; fill: rgb(255,255,255); fill-rule: nonzero; opacity: 1;" vector-effect="non-scaling-stroke" transform=" translate(-367.0228133488, -74.1079045967)" d="M 349.56 61.36 Q 368.08 58.5 384.75 59 Q 387.24 59.07 390.13 59.93 Q 393.18 60.83 394.92 62.36 Q 398.23 65.25 398.75 70.25 Q 399.37 76.17 399.35 79.75 Q 399.25 95.5 399.25 111.97 C 399.2499033273595 112.23960736161864 399.1462869906076 112.49802948749009 398.96222028715914 112.68773088594207 C 398.77815358371066 112.87743228439408 398.5289166598402 112.98266504957218 398.27 112.98 L 385.44 112.84 C 385.1604289031093 112.83446465672004 384.9351273737638 112.60032777328259 384.93 112.31 Q 384.63 93.7 384.74 75.08 Q 384.75 72.36 383.85 71.12 Q 382.48 69.25 379.75 69.25 Q 367.47 69.25 355.19 69.25 Q 351.34 69.25 351.32 69.25 Q 348.93 69.77 349 73.25 Q 349.12 79.31 348.94 112.18 C 348.941541757937 112.4688031071824 348.7275379991401 112.70901140787277 348.45 112.73 Q 341.71 113.36 335.16 112.83 C 334.9285281308459 112.81418903562283 334.7491143649207 112.6172714876561 334.75 112.38 L 334.69 35.67 C 334.69 35.492304951807505 334.7605890830448 35.321887830165196 334.88623845660504 35.19623845660501 C 335.0118878301652 35.07058908304482 335.1823049518075 34.99999999999999 335.36 35 L 348.55 35 C 348.83718806991203 35.00000000000001 349.07 35.232811930088 349.07 35.52 L 349.06 60.94 C 349.06124385718306 61.06553024298338 349.1172824583251 61.1842484838389 349.2134062946585 61.26499250635893 C 349.30953013099185 61.34573652887896 349.4361391886921 61.38044232145099 349.56 61.36 Z" stroke-linecap="round"/>
</g>
<g transform="matrix(0.5909084866 0 0 0.5909084866 480.3726094954 314.0935719038)" id="KAluUFdo3w3Cw5K5deM07">
<path style="stroke: none; stroke-width: 1; stroke-dasharray: none; stroke-linecap: butt; stroke-dashoffset: 0; stroke-linejoin: miter; stroke-miterlimit: 4; fill: rgb(255,255,255); fill-rule: nonzero; opacity: 1;" vector-effect="non-scaling-stroke" transform=" translate(-904.0935363546, -73.9950448249)" d="M 886.56 61.36 Q 903.22 58.81 920.06 58.97 Q 921.99 58.99 923.91 59.3 Q 927.07 59.8 927.75 60 Q 933.55 61.71 935.5 68 Q 936.56 71.41 936.45 79.75 Q 936.25 95.75 936.25 112.37 C 936.2499295306844 112.53352644200174 936.1863571892738 112.69021453893222 936.07354876098 112.80490310769763 C 935.9607403326861 112.91959167646303 935.8081430112585 112.98267607008474 935.65 112.98 L 922.44 112.84 C 922.1604289031093 112.8344646567201 921.9351273737637 112.60032777328263 921.93 112.31 Q 921.63 93.7 921.74 75.08 Q 921.75 72.39 920.84 71.15 Q 919.45 69.25 916.75 69.25 Q 904.47 69.25 892.19 69.25 Q 888.4 69.25 888.32 69.27 Q 886.01 69.81 886 73.25 Q 885.95 92.59 886.07 112.43 C 886.0699315615641 112.58027240540777 886.0116272045649 112.7242493647842 885.9081947327824 112.8295624269627 C 885.804762261 112.9348754891412 885.6648814976938 112.9926870158937 885.52 112.99 L 872.19 112.84 C 871.9121679339154 112.83455910336076 871.6898351655702 112.60333302428184 871.69 112.32 L 871.69 35.81 C 871.69 35.36264935263708 872.0526493526371 35.00000000000003 872.5 35 L 885.33 35 C 885.7331678673764 35.00000000000006 886.06 35.33130928512525 886.06 35.74 L 886.06 60.94 C 886.061243857183 61.06553024298338 886.1172824583251 61.1842484838389 886.2134062946584 61.26499250635893 C 886.3095301309918 61.34573652887896 886.436139188692 61.38044232145099 886.56 61.36 Z" stroke-linecap="round"/>
</g>
<g transform="matrix(0.5909084866 0 0 0.5909084866 28.9775703686 315.5703603621)" id="BYVCImPHrT5HXIs0hJ9Es">
<path style="stroke: none; stroke-width: 1; stroke-dasharray: none; stroke-linecap: butt; stroke-dashoffset: 0; stroke-linejoin: miter; stroke-miterlimit: 4; fill: rgb(255,255,255); fill-rule: nonzero; opacity: 1;" vector-effect="non-scaling-stroke" transform=" translate(-67.125, -77.5000000028)" d="M 59.44 54.49 C 59.44 54.21938047258291 59.22061952741709 54 58.95 54 L 28.66 54 C 28.295492065111677 54 28.000000000000004 53.704507934888326 28 53.34 L 28 42.66 C 28.000000000000004 42.295492065111674 28.295492065111677 42 28.66 42 L 105.69 42 C 105.99927945990524 42 106.25 42.24624338759306 106.25 42.55 L 106.2 53.17 C 106.19447036730305 53.637273678806466 105.80814196977289 54.01472096374973 105.33 54.02 L 75.45 54.18 C 75.162811930088 54.18 74.93 54.41281193008799 74.93 54.7 L 74.81 112.26 C 74.81 112.66869071487478 74.48316786737648 113 74.08 113 L 60.11 113 C 59.776973219372415 113.00004475259266 59.50545945246247 112.73298203104189 59.5 112.4 L 59.44 54.49 Z" stroke-linecap="round"/>
</g>
<g transform="matrix(0.5909084866 0 0 0.5909084866 225.4702623016 316.1646793456)" id="RWCDPikUg7KCXGYlMg0hM">
<path style="stroke: none; stroke-width: 1; stroke-dasharray: none; stroke-linecap: butt; stroke-dashoffset: 0; stroke-linejoin: miter; stroke-miterlimit: 4; fill: rgb(255,255,255); fill-rule: nonzero; opacity: 1;" vector-effect="non-scaling-stroke" transform=" translate(-472.7198922269, -77.499999465)" d="M 471.41 58.79 Q 463.01 85.48 453.31 112.51 C 453.2077957263808 112.80359062851714 452.93087153250127 113.00024694011273 452.62 113 L 433.76 113 C 433.3643106653643 113.00087149635576 433.00857928079006 112.74906163985935 432.87 112.37 L 407.67 42.76 C 407.6110753090236 42.597833123023925 407.63169615516637 42.41715099853226 407.7252594379097 42.275810720345525 C 407.81882272065303 42.1344704421588 407.9735890672454 42.05020595634833 408.14 42.05 L 423.31 42.17 C 423.610693508628 42.16976154386923 423.88175786653755 42.3611010906289 423.99 42.65 Q 431 61.4 437.75 80.25 Q 441.71 91.3 443.13 98.62 Q 443.29 99.46 443.61 99.77 Q 444.14 100.3 444.83 99.77 C 445.05354307102294 99.60403934008424 445.21248460063265 99.30783012581169 445.27 98.95 Q 446.38 92.69 446.81 91.31 Q 454.56 66.85 462.37 42.66 C 462.4962495803027 42.265898526385875 462.8603247982151 41.99891003325008 463.27 42 L 481.91 42 C 482.35746900199996 41.9999305026323 482.7549268492616 42.28096130372643 482.9 42.7 Q 492.56 70.84 501.25 98.75 Q 501.74 100.32 502.78 99.73 C 503.0277252011488 99.5902718227057 503.21714608336754 99.30978320865107 503.3 98.96 Q 504.09 95.4 504.94 91.86 Q 505.76 88.46 506.98 84.86 Q 514.03 64.02 521.18 42.72 C 521.3129673649264 42.324935679782534 521.6753968925096 42.05915402622154 522.08 42.06 L 537.36 42.06 C 537.4859216626888 42.05883004076555 537.6061564954564 42.11287973248359 537.6902764954629 42.20847064158188 C 537.7743964954693 42.30406155068018 537.8143405647564 42.432033338569724 537.8 42.56 Q 537.11 48.67 535.03 53.97 Q 523.74 82.66 512.44 112.08 C 512.22874269423 112.63313195407439 511.6959653426421 112.99891938949293 511.1 113 L 492.77 113 C 492.32500932068285 113.00002140443709 491.9283302260958 112.71954123654727 491.78 112.3 Q 482.28 85.43 473.56 59.19 Q 473.09 57.77 472.01 58.11 C 471.74146352507273 58.196799498841294 471.51703793191774 58.451148504416956 471.41 58.79 Z" stroke-linecap="round"/>
</g>
<g transform="matrix(0.5909084866 0 0 0.5909084866 429.97416603 316.2019187458)" id="7wzyrXZIkoO2sVU2EbZgp">
<path style="stroke: none; stroke-width: 1; stroke-dasharray: none; stroke-linecap: butt; stroke-dashoffset: 0; stroke-linejoin: miter; stroke-miterlimit: 4; fill: rgb(255,255,255); fill-rule: nonzero; opacity: 1;" vector-effect="non-scaling-stroke" transform=" translate(0, 0)" d="M -37.75378 -18.89302 C -36.74711 -26.04635 -33.50045 -30.883020000000002 -28.013779999999997 -33.40302 C -25.267109999999995 -34.663019999999996 -20.040449999999996 -35.36302 -12.333779999999997 -35.50302 C -0.7404499999999974 -35.70969 10.852890000000002 -35.64635 22.446220000000004 -35.31302 C 26.359550000000006 -35.20635 30.199550000000002 -34.623020000000004 33.96622000000001 -33.56302 C 34.39426000000001 -33.440940000000005 34.64573000000001 -32.98653 34.53622000000001 -32.53302 L 32.366220000000006 -23.98302 C 32.28978000000001 -23.70066 32.040060000000004 -23.50416 31.756220000000006 -23.50302 C 18.362890000000007 -23.54302 4.966220000000007 -23.57969 -8.433779999999992 -23.61302 C -8.527109999999992 -23.61302 -10.220449999999992 -23.736349999999998 -13.513779999999992 -23.98302 C -19.80710999999999 -24.43635 -22.72377999999999 -21.04635 -22.26377999999999 -13.81302 C -22.05044999999999 -10.513020000000001 -20.68710999999999 -8.33635 -18.17377999999999 -7.28302 C -17.04044999999999 -6.80302 -14.76377999999999 -6.56302 -11.34377999999999 -6.56302 C -3.7437799999999903 -6.56302 3.8528900000000093 -6.56302 11.44622000000001 -6.56302 C 16.90622000000001 -6.56302 21.81289000000001 -6.01635 26.16622000000001 -4.92302 C 33.09955000000001 -3.18302 36.93955000000001 1.2703099999999994 37.686220000000006 8.436979999999998 C 38.06622000000001 12.023649999999998 38.079550000000005 15.606979999999998 37.726220000000005 19.18698 C 36.912890000000004 27.42031 32.56955000000001 32.58698 24.696220000000004 34.68698 C 22.209550000000004 35.346979999999995 18.459550000000004 35.65365 13.446220000000004 35.60698 C 2.6128900000000037 35.49365 -8.220449999999996 35.49698 -19.053779999999996 35.61698 C -24.913779999999996 35.67698 -30.840449999999997 35.160309999999996 -36.83378 34.06698 C -37.15268 34.0086 -37.427319999999995 33.80744 -37.57787 33.52199 C -37.72842 33.236540000000005 -37.73798 32.898810000000005 -37.60378 32.60698 L -33.46378 23.70698 C -33.33645 23.428320000000003 -33.05375 23.251640000000002 -32.74378 23.256980000000002 C -17.017110000000002 23.47031 -1.287110000000002 23.513650000000002 14.446219999999997 23.38698 C 18.712889999999998 23.353650000000002 21.279549999999997 21.71365 22.146219999999996 18.46698 C 22.806219999999996 16.00698 22.882889999999996 13.48365 22.376219999999996 10.89698 C 21.669549999999997 7.256979999999999 18.859549999999995 5.436979999999999 13.946219999999997 5.436979999999999 C 4.366219999999997 5.436979999999999 -5.217110000000002 5.433649999999999 -14.803780000000003 5.4269799999999995 C -17.837110000000003 5.4269799999999995 -20.847110000000004 5.16365 -23.833780000000004 4.636979999999999 C -31.827110000000005 3.2303099999999993 -36.400450000000006 -1.5863500000000004 -37.55378 -9.81302 C -38.04711 -13.31969 -38.113780000000006 -16.34635 -37.753780000000006 -18.89302 z" stroke-linecap="round"/>
</g>
<g transform="matrix(0.5909084866 0 0 0.5909084866 371.5624391302 320.9078173479)" id="iJzgfIGPOcuM4hxgBSLzV">
<path style="stroke: none; stroke-width: 1; stroke-dasharray: none; stroke-linecap: butt; stroke-dashoffset: 0; stroke-linejoin: miter; stroke-miterlimit: 4; fill: rgb(255,255,255); fill-rule: nonzero; opacity: 1;" vector-effect="non-scaling-stroke" transform=" translate(-0.0000048108, 0.0000017481)" d="M -25.52305 26.89314 L -25.63305 -25.71686 C -25.63469 -26.00078 -25.41983 -26.24142 -25.13305 -26.27686 C -21.25305 -26.73019 -18.44305 -26.81353 -16.70305 -26.52686 C -15.689720000000001 -26.36019 -14.163050000000002 -25.61686 -12.123050000000001 -24.29686 C -11.858770000000002 -24.12783 -11.52865 -24.09445 -11.23305 -24.20686 C 1.0069499999999998 -28.933529999999998 13.19028 -28.530189999999997 25.31695 -22.996859999999998 C 25.57734 -22.87568 25.699299999999997 -22.57077 25.59695 -22.29686 L 21.91695 -12.416859999999998 C 21.86905 -12.290619999999999 21.77234 -12.189399999999997 21.65055 -12.138019999999997 C 21.52875 -12.086639999999997 21.39314 -12.089849999999997 21.27695 -12.146859999999997 C 15.323619999999998 -14.913529999999996 9.216949999999999 -16.56019 2.956949999999999 -17.086859999999998 C -1.2697200000000013 -17.446859999999997 -4.199720000000001 -17.403529999999996 -5.83305 -16.95686 C -9.41972 -15.990189999999998 -11.213049999999999 -13.09686 -11.213049999999999 -8.27686 C -11.20638 2.9698100000000007 -11.20305 14.633140000000001 -11.20305 26.713140000000003 C -11.20305 27.132880000000004 -11.54331 27.473140000000004 -11.963049999999999 27.473140000000004 L -24.94305 27.473140000000004 C -25.09688 27.473140000000004 -25.2444 27.412030000000005 -25.35317 27.303260000000005 C -25.46194 27.194490000000005 -25.523049999999998 27.046960000000006 -25.523049999999998 26.893140000000006 z" stroke-linecap="round"/>
</g>
<g transform="matrix(0.5909084866 0 0 0.5909084866 71.8409799096 320)" id="VpopGZdb5slGJIbrNM91x">
<path style="stroke: none; stroke-width: 1; stroke-dasharray: none; stroke-linecap: butt; stroke-dashoffset: 0; stroke-linejoin: miter; stroke-miterlimit: 4; fill: rgb(255,255,255); fill-rule: nonzero; opacity: 1;" vector-effect="non-scaling-stroke" transform=" translate(-141.6081146412, -86.0057721539)" d="M 124.54 92.75 Q 124.47 94.13 124.49 95.77 Q 124.49 95.82 124.39 97.74 Q 124.23 101.17 127.25 102.25 Q 129.09 102.91 132.22 102.84 Q 135.73 102.76 135.79 102.76 Q 151.98 102.87 168.18 102.57 C 168.51143395445297 102.56439426753899 168.8159357821203 102.71476554046112 168.99 102.97 L 173.24 109.32 C 173.40038225854482 109.56076215032196 173.33807420241965 109.88565415726026 173.1 110.05 Q 170.84 111.69 167.5 112 Q 158.07 112.87 154 112.89 Q 140.14 112.99 126.27 113 Q 124.44 113 122.74 112.79 Q 119.96 112.44 119.25 112.25 Q 111.23 110.14 110.5 102.5 Q 109.71 94.21 110.35 73.97 Q 110.54 67.9 112 65.31 Q 114.38 61.1 119.75 59.75 Q 121.71 59.26 125.25 59.2 Q 138.5 59 151.75 59.02 Q 157.1 59.03 162.32 60.16 Q 167.82 61.34 170.24 65.55 Q 171.72 68.13 172.03 74.22 Q 172.44 82.3 172.23 91.01 C 172.2137700594102 91.56158100928687 171.7618196841244 92.00023872647606 171.21 92 L 125.32 92 C 124.9043690212356 91.99973031670285 124.56131789087185 92.32958717282185 124.54 92.75 Z M 156.94 70.5 Q 155.59 69.82 154.24 69.75 Q 144.46 69.18 134.66 69.22 Q 129.07 69.24 127.88 69.62 Q 123.72 70.96 124.53 76.97 Q 124.75 78.6 124.4 80.21 Q 124.01 82.01 125.82 81.86 Q 127.11 81.75 127.19 81.75 Q 141.86 81.75 157.07 81.75 C 157.25209868836458 81.74990961298379 157.42659714944008 81.68000783823616 157.55441425616036 81.55595005818414 C 157.68223136288063 81.43189227813211 157.75268637297643 81.26404509556642 157.75 81.09 L 157.51 71.35 C 157.49776007602642 70.99822063360688 157.27936879301424 70.6725494220975 156.94 70.5 Z" stroke-linecap="round"/>
</g>
<g transform="matrix(0.5909084866 0 0 0.5909084866 119.9973301565 321.2176567962)" id="vkz7R_2lpqg70-Wos1rHg">
<path style="stroke: none; stroke-width: 1; stroke-dasharray: none; stroke-linecap: butt; stroke-dashoffset: 0; stroke-linejoin: miter; stroke-miterlimit: 4; fill: rgb(255,255,255); fill-rule: nonzero; opacity: 1;" vector-effect="non-scaling-stroke" transform=" translate(-294.2270552754, -86.0512008194)" d="M 267.98 61.74 Q 271.97 58.95 277.25 58.92 Q 292.13 58.84 307 59.21 Q 314.44 59.39 321.7 60.74 C 321.92381036469993 60.78219991645603 322.1185593649008 60.92008806203866 322.2365323594564 61.119881036689286 C 322.354505354012 61.319674011339906 322.38480220239126 61.56291189964294 322.32 61.79 L 320.3 68.95 C 320.2178931318016 69.23920061202405 319.962895840012 69.43661787018374 319.68 69.43 Q 295.43 69.02 282 69.25 Q 279.67 69.29 278.27 70.88 Q 277.26 72.02 277.17 74.41 Q 276.72 86.15 277.17 97.89 Q 277.26 100.17 278.33 101.26 Q 279.77 102.74 282 102.75 Q 300.97 102.8 320.75 102.68 C 321.0830204395648 102.68037842196661 321.3929832648133 102.84096157239655 321.58 103.11 L 325.73 109.18 C 325.85512242013635 109.367757334068 325.8939293433859 109.59994432507179 325.83640336543834 109.81662550867406 C 325.77887738749087 110.03330669227634 325.63065590834924 110.21324786179936 325.43 110.31 Q 324 111.03 322.35 111.55 Q 320.97 111.99 319.09 112.13 Q 303.28 113.35 287.41 113.08 Q 287.32 113.07 280.58 113.12 Q 274.87 113.16 271 112 Q 264.73 110.12 263.32 103.73 Q 262.56 100.28 262.61 96.75 Q 262.75 84.5 262.82 72.25 Q 262.84 69.02 264.14 66.26 Q 265.4 63.55 267.98 61.74 Z" stroke-linecap="round"/>
</g>
<g transform="matrix(0.5909084866 0 0 0.5909084866 284.3097604297 321.3166778206)" id="sg38pL1Id8CFhctMiwohd">
<path style="stroke: none; stroke-width: 1; stroke-dasharray: none; stroke-linecap: butt; stroke-dashoffset: 0; stroke-linejoin: miter; stroke-miterlimit: 4; fill: rgb(255,255,255); fill-rule: nonzero; opacity: 1;" vector-effect="non-scaling-stroke" transform=" translate(-572.2945293599, -86.218775032)" d="M 545.64 61.94 Q 549.29 59.26 554.44 59.19 Q 571.49 58.93 576.75 59 Q 587.23 59.13 592.23 60.11 Q 602.26 62.07 602.31 72.5 Q 602.36 82.1 602.66 90.97 C 602.6708919008358 91.24200886117293 602.569309405587 91.50670047011273 602.3787041944181 91.70296722220742 C 602.1880989832492 91.89923397430209 601.9249468533616 92.01011069223557 601.65 92.01 L 555.69 92.18 C 555.4026731923599 92.17884082791659 555.1607259877399 92.3991856035527 555.13 92.69 Q 554.86 95.38 555.09 98.06 Q 555.29 100.35 556.47 101.43 Q 557.93 102.75 560.25 102.76 Q 579.47 102.89 598.69 102.57 C 599.0127086400986 102.56312492661175 599.3119481561772 102.71842644761458 599.48 102.98 L 603.73 109.32 C 603.89349588015 109.56132397546057 603.8359574782537 109.88885026317791 603.6 110.06 Q 601.24 111.83 599 112 Q 575.55 113.82 553.5 112.75 Q 540.98 112.14 540.87 99.5 Q 540.75 86 540.79 72.5 Q 540.8 69.33 541.99 66.55 Q 543.21 63.72 545.64 61.94 Z M 555.51 72.62 Q 554.62 75.63 555.38 81.24 C 555.4243060174701 81.5320601516654 555.674602550461 81.74841817170831 555.97 81.75 L 587.69 81.69 C 587.9716652224138 81.69 588.2 81.4616652224137 588.2 81.18 L 588.25 72.79 Q 588.26 70.3 585.77 69.81 Q 581.55 68.98 576.25 69.09 Q 568.25 69.25 560.03 69.25 Q 556.51 69.25 555.51 72.62 Z" stroke-linecap="round"/>
</g>
<g transform="matrix(0.5909084866 0 0 0.5909084866 328.5485657536 321.2468678436)" id="TvW-A6Y-9kdk8j_1Yz2lX">
<path style="stroke: none; stroke-width: 1; stroke-dasharray: none; stroke-linecap: butt; stroke-dashoffset: 0; stroke-linejoin: miter; stroke-miterlimit: 4; fill: rgb(255,255,255); fill-rule: nonzero; opacity: 1;" vector-effect="non-scaling-stroke" transform=" translate(-647.1602764765, -86.1006349502)" d="M 664.77 70.53 Q 662.7 69.25 659.75 69.25 Q 646.88 69.25 634 69.25 Q 625.97 69.25 621.06 69.87 C 620.914103427597 69.88932920992269 620.7674353840321 69.85683419601827 620.6527970885861 69.77978222694804 C 620.5381587931403 69.70273025787783 620.4651144916634 69.58754976118034 620.45 69.46 L 619.33 61.06 C 619.2888883735836 60.77587762776974 619.469634709799 60.48832663833607 619.77 60.36 Q 622.97 59 626.5 59 Q 645.75 59 665 59.04 Q 667.67 59.05 670.28 59.61 Q 678.61 61.43 679.75 70.25 Q 680.39 75.21 680.37 77.75 Q 680.25 94.75 680.25 112.44 C 680.2500486989566 112.7454159349446 680.0053672398707 112.99454614783204 679.7 113 Q 676.13 113.04 672.69 112.98 Q 670.85 112.95 669.14 112.11 Q 667.68 111.39 666.2 110.71 C 665.9063302123407 110.57317148442137 665.5754365077067 110.52789129326094 665.25 110.58 Q 647.86 113.38 630.25 113.06 Q 625.16 112.97 621.15 110.54 Q 617.23 108.17 615.55 103.57 Q 613.5 97.97 615.06 92.1 Q 616.15 87.97 618.48 85.51 Q 621.14 82.68 625.3 81.75 Q 628.86 80.96 632.5 80.97 Q 643.34 81 654.18 81 Q 657.13 81 659.82 81.29 Q 662.38 81.56 664.93 81.87 C 665.2134601582259 81.9070023142727 665.4744931115707 81.71675795844504 665.52 81.44 Q 666.27 76.35 665.29 71.31 C 665.2260443972189 70.97876505457695 665.0374542925043 70.69587989750522 664.77 70.53 Z M 629.63 92.31 Q 628.34 95.27 628.94 98.34 Q 629.41 100.79 631.31 101.78 Q 633.1 102.72 635.75 102.75 Q 650.25 102.93 663.92 102.52 C 664.9387180349883 102.49289691185892 665.7503604763135 101.65907844754656 665.75 100.64 L 665.75 90.66 C 665.75 90.29549206511169 665.4545079348884 90.00000000000001 665.09 90 L 633.05 90.06 Q 630.62 90.07 629.63 92.31 Z" stroke-linecap="round"/>
</g>
<g transform="matrix(0.5909084866 0 0 0.5909084866 525.9902700762 321.165467404)" id="SyDanYyHUhm92Oyx86Oc-">
<path style="stroke: none; stroke-width: 1; stroke-dasharray: none; stroke-linecap: butt; stroke-dashoffset: 0; stroke-linejoin: miter; stroke-miterlimit: 4; fill: rgb(255,255,255); fill-rule: nonzero; opacity: 1;" vector-effect="non-scaling-stroke" transform=" translate(-981.2927332154, -85.9628802191)" d="M 953.7 62.18 Q 957.65 58.98 963.25 58.94 Q 993.6 58.71 1001.5 59.25 Q 1008.78 59.75 1011.67 65.34 Q 1013.23 68.38 1013.42 75.91 Q 1013.7 86.8 1013.39 97.68 Q 1013.22 103.74 1012.1 106.15 Q 1010.1 110.47 1005 112 Q 1001.12 113.16 996 113.12 Q 980 113 964 113 Q 960.02 113 955.31 111.19 Q 951.61 109.77 950.1 105.92 Q 949.27 103.79 949.16 98.97 Q 948.93 88.57 949 73.75 Q 949.02 70.3 950.07 67.35 Q 951.2 64.21 953.7 62.18 Z M 999.2609 74.0612 C 999.2631032130625 72.796116759677 998.7626628389493 71.58197302168949 997.8696704512574 70.6858675286707 C 996.9766780635657 69.7897620356519 995.7642832469879 69.28509938271196 994.4992 69.2829 L 968.2792 69.2371 C 967.014116759677 69.23489678693741 965.7999730216894 69.73533716105077 964.9038675286707 70.62832954874253 C 964.0077620356519 71.5213219364343 963.503099382712 72.73371675301205 963.5009 73.9988 L 963.4591 97.9388 C 963.4568967869375 99.203883240323 963.9573371610508 100.41802697831051 964.8503295487426 101.3141324713293 C 965.7433219364343 102.2102379643481 966.9557167530121 102.71490061728804 968.2208 102.7171 L 994.4408 102.7629 C 995.7058832403229 102.76510321306262 996.9200269783105 102.26466283894929 997.8161324713293 101.37167045125751 C 998.7122379643481 100.47867806356574 999.216900617288 99.26628324698797 999.2191 98.0012 L 999.2609 74.0612 Z" stroke-linecap="round"/>
</g>
<g transform="matrix(0.5909084866 0 0 0.5909084866 571.9081534867 327.5838771549)" id="GDxy4wM3cYQ6PgLhfAza7">
<path style="stroke: none; stroke-width: 1; stroke-dasharray: none; stroke-linecap: butt; stroke-dashoffset: 0; stroke-linejoin: miter; stroke-miterlimit: 4; fill: rgb(255,255,255); fill-rule: nonzero; opacity: 1;" vector-effect="non-scaling-stroke" transform=" translate(-1059, -96.824815522)" d="M 1041.31 112.56 L 1041.25 134.33 C 1041.25 134.50769504819252 1041.1804644853587 134.67811216983483 1041.056690475583 134.803761543395 C 1040.9329164658075 134.9294109169552 1040.765042883294 135.00000000000003 1040.59 135 L 1027.62 135 C 1027.1395122676472 134.99999999999994 1026.75 134.61048773235274 1026.75 134.13 L 1026.75 60.3 C 1026.7506456806066 59.73935173971652 1027.1693929265355 59.26505638973598 1027.73 59.19 Q 1034.45 58.34 1039.3 60.31 C 1039.6001598184662 60.43382394526463 1039.9276696344696 60.465181268073465 1040.24 60.4 Q 1047.18 59 1052.25 59 Q 1064.25 59 1076.25 59 Q 1078.35 59 1081.97 59.89 Q 1091.07 62.12 1091.15 71.75 Q 1091.25 83.75 1091.25 95.75 Q 1091.25 100.72 1090.61 103.47 Q 1089.14 109.81 1083 112 Q 1079.76 113.15 1073.87 113.13 Q 1066.24 113.09 1066.12 113.1 Q 1053.94 113.29 1041.81 112.11 C 1041.6822558202975 112.09571526978239 1041.5545005490567 112.13674128446704 1041.4589572379869 112.22273026442988 C 1041.363413926917 112.30871924439275 1041.3092038009677 112.43146208717914 1041.31 112.56 Z M 1075.88 100.74 C 1076.4175558190914 100.21546883487272 1076.7235227192432 99.49914632745794 1076.73 98.75 Q 1076.83 87.57 1076.96 78.28 Q 1077.03 73.35 1076.88 72.74 Q 1076.07 69.26 1071.5 69.26 Q 1063.62 69.25 1055.75 69.1 Q 1048.66 68.96 1041.89 70.15 C 1041.5222997516162 70.21384615497178 1041.2553223064258 70.53167644686512 1041.26 70.9 L 1041.49 101.5 C 1041.495465504299 102.04247929179941 1041.9369900233276 102.48400381082796 1042.49 102.5 Q 1054.84 102.91 1067.18 102.77 Q 1067.25 102.77 1069.83 102.89 Q 1073.53 103.06 1075.88 100.74 Z" stroke-linecap="round"/>
</g>
</svg>