<svg xmlns="http://www.w3.org/2000/svg" xmlns:xlink="http://www.w3.org/1999/xlink" version="1.1" xml:space="preserve" viewBox="34 292 581.86 56.01">
<desc>Created with Fabric.js 5.3.0</desc>
<defs>
</defs>
<g transform="matrix(0.5600962566 0 0 0.5600962566 187.3767992027 313.8445279968)" id="sjX0nUO_xDIDMEJvvAKXt">
<path style="stroke: none; stroke-width: 1; stroke-dasharray: none; stroke-linecap: butt; stroke-dashoffset: 0; stroke-linejoin: miter; stroke-miterlimit: 4; fill: rgb(32,33,36); fill-rule: nonzero; opacity: 1;" vector-effect="non-scaling-stroke" transform=" translate(-381.8973326383, -294.0099747493)" d="M 369.06 280.78 C 369.0596551831999 280.9689154600724 369.14406680907956 281.14811178745146 369.29063276161855 281.26960724810874 C 369.4371987141575 281.3911027087661 369.6309472040321 281.4424864773413 369.82 281.41 Q 386.67 278.5 402.81 279.19 Q 411.34 279.55 414.54 285.43 Q 416.22 288.52 416.36 296.86 Q 416.66 314.4 416.49 332.45 C 416.49 332.5958690694117 416.43100016939536 332.7357637215062 416.32597979746447 332.8389087296526 C 416.2209594255336 332.94205373779903 416.07852123431013 333 415.93 333 L 395.41 333 C 395.2349571167059 333 395.0670835341926 332.9304644853588 394.94330952441686 332.80669047558314 C 394.8195355146412 332.6829164658074 394.75 332.5150428832941 394.75 332.34 Q 394.75 316 394.75 300 Q 394.75 296.81 393.02 295.3 Q 391.84 294.27 388.71 294.12 Q 380.31 293.73 370.77 294.34 C 369.9122829814803 294.39745241053936 369.2446316348616 295.09128616290786 369.24 295.93 L 369.06 332.27 C 369.0601906035174 332.63615068142883 368.77517981462074 332.9345213510551 368.42 332.94 L 347.88 333 C 347.49892352261674 333 347.19 332.68659932488157 347.19 332.3 L 347.25 256.01 C 347.2500693346233 255.74569521238993 347.35262011674365 255.4923585668991 347.5348145071213 255.30640759115286 C 347.71700889749894 255.12045661540662 347.9637179184068 255.0173322248171 348.22 255.02 L 368.5 255.23 C 368.63260824491977 255.23 368.75978520136925 255.28583912539366 368.8535533905933 255.38523340597112 C 368.9473215798173 255.48462768654858 369 255.61943526038505 369 255.76 L 369.06 280.78 Z" stroke-linecap="round"/>
</g>
<g transform="matrix(0.5600962566 0 0 0.5600962566 503.8309654599 313.8389411776)" id="oR1B9SX6oycEPzpgPAmJh">
<path style="stroke: none; stroke-width: 1; stroke-dasharray: none; stroke-linecap: butt; stroke-dashoffset: 0; stroke-linejoin: miter; stroke-miterlimit: 4; fill: rgb(32,33,36); fill-rule: nonzero; opacity: 1;" vector-effect="non-scaling-stroke" transform=" translate(-946.896942105, -294.0000000009)" d="M 934.55 281.36 Q 954.31 278.03 969.5 279.25 Q 976.77 279.83 979.65 285.35 Q 981.22 288.35 981.35 295.93 Q 981.66 313.7 981.49 332.13 C 981.4845212286056 332.61210084077584 981.0921319701531 333.00003113038224 980.61 333 L 960.42 333 C 960.0499692176134 333 959.75 332.7000307823866 959.75 332.33 Q 959.75 315.6 959.75 299.39 Q 959.75 297.3 959.06 296.27 Q 958.4 295.28 957.32 294.7 Q 956.51 294.26 955.09 294.18 Q 946.09 293.69 935.76 294.34 C 934.9075620253901 294.3974972797329 934.2442852053139 295.0913197428389 934.24 295.93 L 934.01 332.44 C 934.01 332.7492794599052 933.763756612407 333 933.46 333 L 912.77 333 C 912.482811930088 333 912.25 332.76718806991204 912.25 332.48 L 912.19 255.93 C 912.19 255.4163751826574 912.6018980301557 255.00000000000003 913.11 255 L 933.34 255 C 933.7045079348883 255.00000000000003 934 255.29996921761338 934 255.67 L 934.06 280.94 C 934.0616584186093 281.06552506133886 934.1168323766855 281.1842451470962 934.211036546036 281.26499157796803 C 934.3052407153864 281.34573800883993 934.4290647559195 281.38044477903327 934.55 281.36 Z" stroke-linecap="round"/>
</g>
<g transform="matrix(0.5600962566 0 0 0.5600962566 56.5471516188 315.8011172857)" id="J3f-nnv17fijtBt2Bbn0g">
<path style="stroke: none; stroke-width: 1; stroke-dasharray: none; stroke-linecap: butt; stroke-dashoffset: 0; stroke-linejoin: miter; stroke-miterlimit: 4; fill: rgb(32,33,36); fill-rule: nonzero; opacity: 1;" vector-effect="non-scaling-stroke" transform=" translate(-68.25, -297.5)" d="M 79.56 278.56 L 79.5 332.12 C 79.5 332.6060105798511 79.11048773235278 333 78.63 333 L 57.24 333 C 57.11004391997862 333 56.98541050265813 332.9483751482209 56.89351767721859 332.8564823227814 C 56.80162485177905 332.7645894973419 56.75 332.63995608002136 56.75 332.51 L 56.75 278.75 C 56.75 278.36892352261674 56.44555362988494 278.06 56.07 278.06 L 28.87 278 C 28.639261653839597 278 28.41797374961749 277.9083395488821 28.254817100367703 277.7451828996323 C 28.09166045111791 277.5820262503825 28 277.3607383461604 28 277.13 L 28 262.87 C 28 262.6392616538396 28.09166045111791 262.4179737496175 28.254817100367703 262.2548171003677 C 28.41797374961749 262.0916604511179 28.639261653839597 262 28.87 262 L 107.84 262 C 108.0150428832941 262 108.18291646580742 262.0695355146412 108.30669047558312 262.19330952441686 C 108.43046448535884 262.3170835341926 108.5 262.4849571167059 108.5 262.66 L 108.5 277.34 C 108.5 277.5150428832941 108.42941091695518 277.6829164658074 108.303761543395 277.80669047558314 C 108.1781121698348 277.9304644853588 108.0076950481925 278 107.83 278 L 80.05 278.06 C 79.77938047258291 278.06 79.56 278.28385762508464 79.56 278.56 Z" stroke-linecap="round"/>
</g>
<g transform="matrix(0.5600962566 0 0 0.5600962566 249.220739194 315.7992762877)" id="Lj5Haj-jksAhNX7kbKJ79">
<path style="stroke: none; stroke-width: 1; stroke-dasharray: none; stroke-linecap: butt; stroke-dashoffset: 0; stroke-linejoin: miter; stroke-miterlimit: 4; fill: rgb(32,33,36); fill-rule: nonzero; opacity: 1;" vector-effect="non-scaling-stroke" transform=" translate(-492.3139606014, -297.4999968084)" d="M 521.51 312.92 Q 522.63 313.4 522.94 312.19 Q 529.21 287.87 536.19 262.79 C 536.3201389974354 262.3231435399931 536.7453443592601 262.00015100553003 537.23 262 L 560.62 262 C 560.7511781124127 261.9992225139491 560.8764478755241 262.05448768069414 560.9643084217363 262.1518982862771 C 561.0521689679483 262.24930889186004 561.0942610449589 262.3795970695981 561.08 262.51 Q 560.47 268.01 558.76 272.46 Q 547.19 302.51 535.37 332.46 C 535.2620078000328 332.7477729147596 534.9873665424893 332.938827702616 534.68 332.94 L 508.6 333 C 508.2907230651425 333.0006802703588 508.0157020570437 332.7984589408744 507.92 332.5 Q 502.22 315.26 496.79 298.49 Q 493.79 289.22 493.25 285.5 Q 493.04 284.03 491.94 284.1 C 491.65300981131435 284.11349609046636 491.3960193696367 284.3383627269343 491.3 284.66 Q 490.55 287.23 489.97 289.84 Q 489.27 293 488.66 294.99 Q 482.93 313.78 476.48 332.34 C 476.3782641643821 332.632489977147 476.1056729411228 332.82891600567206 475.8 332.83 L 449.44 332.83 C 449.13919675040336 332.8285419526122 448.8681428414984 332.63322369472485 448.76 332.34 L 423.59 263.03 C 423.50850053157643 262.80990381320936 423.5393920110944 262.5638979128401 423.6727789586944 262.37078546631466 C 423.80616590629444 262.17767301978927 424.02530525107585 262.0616939954267 424.26 262.06 L 447.76 262 C 448.1254389015603 261.99850295220915 448.44502550916275 262.2361442758109 448.54 262.58 L 462.93 312.2 C 463.0293332097994 312.53015511885854 463.2543023378669 312.7813706452005 463.53 312.87 Q 464.81 313.26 464.98 311.97 Q 465.16 310.63 465.19 310.53 Q 471.47 286.49 478.55 262.66 C 478.63267282639237 262.37516126131044 478.88764692749027 262.17684807156763 479.18 262.17 L 505.03 262.01 C 505.5466695633456 262.00971714381103 506.0058491411655 262.35918124728465 506.16 262.87 L 520.92 312.21 C 521.02130111717 312.54596111592207 521.2383663427227 312.8071752009092 521.51 312.92 Z" stroke-linecap="round"/>
</g>
<g transform="matrix(0.5600962566 0 0 0.5600962566 453.5102827184 315.7471168028)" id="g4N2W1_wCzs94f8DcYUpT">
<path style="stroke: none; stroke-width: 1; stroke-dasharray: none; stroke-linecap: butt; stroke-dashoffset: 0; stroke-linejoin: miter; stroke-miterlimit: 4; fill: rgb(32,33,36); fill-rule: nonzero; opacity: 1;" vector-effect="non-scaling-stroke" transform=" translate(-857.0540228813, -297.4068708783)" d="M 823.24 300.99 Q 819.28 298.29 817.81 293.69 Q 816.26 288.81 816.54 280.74 Q 816.92 269.96 825.02 265.11 Q 828.68 262.93 834.51 262.39 Q 838.81 262 844.5 262 Q 860.62 262 876.75 261.86 Q 885.78 261.78 894.64 264.04 C 894.8209843593436 264.0843259449666 894.9765697563205 264.20001057623364 895.0722959100843 264.361431149247 C 895.1680220638481 264.5228517222604 895.1959881430873 264.71668526657373 895.15 264.9 L 891.8 278.7 C 891.7298049282581 278.9858671119668 891.4806301733631 279.1852069158828 891.2 279.18 Q 868.6 278.86 846 278.93 Q 838.92 278.95 839.92 285.01 Q 840.24 286.95 841.56 287.9 Q 843.01 288.94 845 288.95 Q 857.25 289 869.5 289 Q 877.55 289 883.5 290 Q 896.12 292.12 897.25 305.25 Q 897.97 313.65 896.34 320.21 Q 893.89 330.05 884 332.25 Q 881.79 332.74 877.25 332.78 Q 852.88 333 828.5 332.95 Q 822.71 332.94 817.28 331.1 C 817.1603224994712 331.0589511502564 817.0639419602434 330.96834211668244 817.0144700523181 330.85037064393754 C 816.9649981443928 330.7323991711926 816.9670053731221 330.5979641566547 817.02 330.48 L 823.6 316.27 C 823.7273324417172 315.99134364453965 824.0100305762427 315.8146573104612 824.32 315.82 Q 846.66 316.13 869 315.88 Q 874.48 315.82 874.31 309.94 Q 874.24 307.41 872.87 306.16 Q 871.89 305.27 869.38 305.19 Q 853.15 304.67 845.75 305 Q 836.44 305.42 829 303.75 Q 826.44 303.18 823.24 300.99 Z" stroke-linecap="round"/>
</g>
<g transform="matrix(0.5600962566 0 0 0.5600962566 395.1287944694 320.1813665951)" id="KysW93dvIVA9bm_fQDZwM">
<path style="stroke: none; stroke-width: 1; stroke-dasharray: none; stroke-linecap: butt; stroke-dashoffset: 0; stroke-linejoin: miter; stroke-miterlimit: 4; fill: rgb(32,33,36); fill-rule: nonzero; opacity: 1;" vector-effect="non-scaling-stroke" transform=" translate(-752.8192818731, -305.3238132607)" d="M 756.19 293.06 Q 752.47 292.61 749.22 293.66 Q 747.35 294.27 746.47 295.72 Q 745.5 297.33 745.5 299.25 Q 745.5 315.5 745.5 332.48 C 745.5 332.76718806991204 745.267188069912 333 744.98 333 L 724.91 333 C 724.5123549801218 332.99999999999994 724.19 332.67316786737643 724.19 332.27 L 724.25 279.73 C 724.25 279.53639196241716 724.3258569250631 279.3507136060009 724.4608831175457 279.2138120497338 C 724.5959093100283 279.07691049346676 724.7790441273155 279 724.97 279 Q 731.9 279 738.8 279 Q 740.6 279 742.04 279.71 Q 743.58 280.47 744.99 281.39 C 745.2315220897365 281.54547589717987 745.5378356642652 281.56438414252113 745.8 281.44 Q 754.44 277.24 763.76 278.1 Q 773.15 278.97 781.24 283.74 C 781.4191208676501 283.8508120719579 781.4945885486163 284.0730224659139 781.42 284.27 L 775.92 298.79 C 775.8784569978236 298.9062394056179 775.7867620174392 298.9976921975831 775.6692721896734 299.0400655780888 C 775.5517823619077 299.0824389585944 775.4203910481883 299.07144351860114 775.31 299.01 Q 766.53 294.31 756.19 293.06 Z" stroke-linecap="round"/>
</g>
<g transform="matrix(0.5600962566 0 0 0.5600962566 100.4661857881 320.520456079)" id="IJvqCk7B_-QgOHfCRNL46">
<path style="stroke: none; stroke-width: 1; stroke-dasharray: none; stroke-linecap: butt; stroke-dashoffset: 0; stroke-linejoin: miter; stroke-miterlimit: 4; fill: rgb(32,33,36); fill-rule: nonzero; opacity: 1;" vector-effect="non-scaling-stroke" transform=" translate(-146.6633685055, -305.9259423938)" d="M 134.47 312.56 Q 134.04 315.5 136.1 316.91 Q 137.3 317.73 140.1 317.82 Q 156.8 318.3 173.51 317.77 C 173.80812771717825 317.7575908454949 174.09627514688236 317.90924738744445 174.27 318.17 L 180.63 327.78 C 180.9849182550235 328.31464929539965 180.84661252701807 329.03294678600844 180.32 329.39 Q 177.98 330.97 175.49 331.43 Q 166.94 332.99 158.25 333 Q 144.62 333 131 333 Q 128.27 333 123.74 332.04 Q 119.61 331.16 116.85 328.42 Q 114.45 326.03 113.44 321.84 Q 112.5 317.92 112.5 313.25 Q 112.5 304.37 112.57 295.5 Q 112.66 284.37 122.06 280.56 Q 125.95 278.99 132.5 279 Q 141.74 279 150.98 279 Q 151.1 279 155.01 278.91 Q 161.13 278.77 166.98 280.25 Q 173.01 281.78 175.9 285.15 Q 179.43 289.28 179.44 295.5 Q 179.46 303.9 179.56 312.31 C 179.56020684544617 312.5895554863824 179.33934871745956 312.8192479394885 179.06 312.83 Q 157.05 313.47 135.07 312.1 C 134.77555507711526 312.07914148303496 134.51520420366754 312.27874381934487 134.47 312.56 Z M 135.19 300.83 L 156.47 300.98 C 156.81813622520016 300.9852144954511 157.1236932728605 300.7340717165522 157.2 300.38 Q 157.89 297.16 156.96 295.48 C 156.81271237342312 295.2106122220941 156.5440436774724 294.99925951461285 156.21 294.89 Q 154.32 294.25 151.75 294.25 Q 146.33 294.25 140.91 294.25 Q 137.72 294.25 136.31 295.22 Q 133.94 296.87 134.58 300.32 C 134.63683138974648 300.61304679505537 134.8915203550537 300.82598347096797 135.19 300.83 Z" stroke-linecap="round"/>
</g>
<g transform="matrix(0.5600962566 0 0 0.5600962566 144.4991549541 320.5226948784)" id="ds1Rd4Bw537i2g05iL4mm">
<path style="stroke: none; stroke-width: 1; stroke-dasharray: none; stroke-linecap: butt; stroke-dashoffset: 0; stroke-linejoin: miter; stroke-miterlimit: 4; fill: rgb(32,33,36); fill-rule: nonzero; opacity: 1;" vector-effect="non-scaling-stroke" transform=" translate(-305.3432694011, -305.9332233027)" d="M 275.57 326.55 Q 273.08 323.06 272.94 318.31 Q 272.45 300.79 272.75 294.75 Q 273.3 283.68 282.81 280.31 Q 285.87 279.23 290.42 279.03 Q 290.88 279 298.09 278.93 Q 312.07 278.79 325.98 280.22 Q 330.35 280.67 334.34 282.27 C 334.58419560245756 282.37311678909117 334.716616941879 282.63368781182373 334.65 282.88 L 331.39 294.85 C 331.3139135191764 295.13698997673765 331.0353078713281 295.3269483729979 330.73 295.3 Q 315.28 293.79 300.25 294.06 Q 295.64 294.14 294.71 297.65 Q 294.49 298.45 294.46 303.38 Q 294.41 309.03 294.74 314.57 Q 294.92 317.63 297.98 317.75 Q 314.41 318.38 330.81 317.71 C 331.12655027935426 317.69738623732087 331.4258456351937 317.84892818964465 331.6 318.11 L 337.97 327.9 C 338.1489684452245 328.1747400012518 338.1908780880116 328.5168493438178 338.08392120411156 328.8299413130523 C 337.9769643202116 329.14303328228675 337.73271917972124 329.39321512390677 337.42 329.51 Q 328.04 332.99 318.5 332.99 Q 304.5 333 290.5 332.95 Q 286.1 332.93 282.17 331.41 Q 277.84 329.73 275.57 326.55 Z" stroke-linecap="round"/>
</g>
<g transform="matrix(0.5600962566 0 0 0.5600962566 307.7625490343 320.5848208964)" id="6TZMcJf6I8FnIr0YNQXeY">
<path style="stroke: none; stroke-width: 1; stroke-dasharray: none; stroke-linecap: butt; stroke-dashoffset: 0; stroke-linejoin: miter; stroke-miterlimit: 4; fill: rgb(32,33,36); fill-rule: nonzero; opacity: 1;" vector-effect="non-scaling-stroke" transform=" translate(-596.8349409646, -306.0441435548)" d="M 584.49 312.82 Q 584.19 315.7 586.31 316.94 Q 588.58 318.26 592.5 318.23 Q 608.1 318.11 623.69 317.82 C 624.0006396641754 317.81288341973664 624.2925015498511 317.9682903978237 624.46 318.23 L 630.98 328.2 C 631.141128513328 328.450862369164 631.1033213062493 328.77852483051333 630.89 328.98 Q 629.69 330.15 628.2 330.55 Q 618.53 333.17 608.5 333.1 Q 595.25 333 582 332.99 Q 574.76 332.99 570.56 330.94 Q 565.19 328.31 563.69 322.31 Q 562.67 318.26 562.69 314.45 Q 562.71 311.18 562.7 311.06 Q 562.53 303.87 562.9 296.7 Q 563.26 289.43 565.27 286.2 Q 568.47 281.04 575.5 279.75 Q 579.75 278.97 582.75 278.97 Q 594.88 279 607 279.01 Q 609.98 279.01 612.91 279.42 Q 616.66 279.95 618.71 280.51 Q 624.97 282.22 627.69 287.5 Q 629.52 291.05 629.71 299.79 Q 629.85 305.9 629.73 312.41 C 629.7245422825881 312.7318683775474 629.4664592535204 312.9899514066151 629.15 312.99 Q 614.39 313.13 600.33 312.84 Q 599.15 312.81 592.71 312.27 Q 588.89 311.95 585.05 312.27 C 584.7606015913867 312.2926053678942 584.526409168766 312.52261578296816 584.49 312.82 Z M 607.03 295.41 Q 605.89 294.25 604.26 294.25 Q 599.14 294.25 594.58 294.25 Q 588.8 294.25 588.42 294.33 Q 584.55 295.18 584.5 300.31 C 584.4973221566987 300.49207358099187 584.5677808974392 300.66761439083757 584.6955970304633 300.79731017287673 C 584.8234131634873 300.92700595491584 584.997906728976 301.0000196910968 585.18 301 L 606.56 301 C 607.0445842030654 300.9982345998413 607.4575624012922 300.6526814135699 607.54 300.18 Q 608.18 296.59 607.03 295.41 Z" stroke-linecap="round"/>
</g>
<g transform="matrix(0.5600962566 0 0 0.5600962566 352.1505905748 320.5221734593)" id="KezGhosFafV2APzNZ6QhL">
<path style="stroke: none; stroke-width: 1; stroke-dasharray: none; stroke-linecap: butt; stroke-dashoffset: 0; stroke-linejoin: miter; stroke-miterlimit: 4; fill: rgb(32,33,36); fill-rule: nonzero; opacity: 1;" vector-effect="non-scaling-stroke" transform=" translate(-676.0856787002, -305.9322923572)" d="M 687.91 295.73 C 687.4327937989478 294.84478094587 686.5220927923194 294.2808322053637 685.52 294.25 Q 666.91 293.69 648.31 294.18 C 648.0431242113146 294.1854137764235 647.8163795836386 293.9761110431842 647.79 293.7 L 646.79 283.06 C 646.6951717593337 282.0465235012236 647.2891107017832 281.1179710700701 648.21 280.84 Q 652.17 279.64 656 279.25 Q 661.33 278.71 688 279 Q 696.02 279.09 700.86 280.78 Q 708.16 283.34 709.52 291 Q 710.33 295.59 710.31 300.25 Q 710.25 316.25 710.25 332.44 C 710.2500486989566 332.7454159349446 710.0053672398707 332.99454614783207 709.7 333 Q 702.22 333.04 695.3 332.96 Q 693.7 332.94 692.43 332.39 Q 690.97 331.77 689.78 331.02 C 689.1811739605487 330.65337363235983 688.4686103858685 330.521549371044 687.78 330.65 Q 674.49 333.16 661.5 333 Q 656.27 332.94 651.3 331.34 Q 645.47 329.46 643.43 324.37 Q 642.26 321.48 641.99 317.04 Q 641.75 313.25 642.7 309.49 Q 644.03 304.17 648.81 301.56 Q 653.4 299.06 661 299.02 Q 674.53 298.94 687.94 300.62 C 688.2239009081833 300.6579568475266 688.4851877075839 300.4719560750719 688.53 300.2 Q 688.96 297.67 687.91 295.73 Z M 665.92 318.63 Q 667.2 319 668.52 319 L 686.52 319 C 687.0327325459422 318.9993481870308 687.524176889018 318.821412022913 687.8848329712589 318.5058379509522 C 688.2454890534999 318.1902638789914 688.4453916800355 317.76327144469917 688.44 317.32 L 688.38 311.68 C 688.3735749773739 311.40398836582807 688.1277241292139 311.1800884862537 687.82 311.17 Q 679.44 310.9 671.06 310.98 Q 667.03 311.01 666.94 311.03 Q 664.12 311.49 663.97 314.6 Q 663.89 316.35 664.02 316.9 Q 664.31 318.16 665.92 318.63 Z" stroke-linecap="round"/>
</g>
<g transform="matrix(0.5600962566 0 0 0.5600962566 549.9919468843 320.6392617359)" id="KLXIR4mD__fAdNnUnXvwJ">
<path style="stroke: none; stroke-width: 1; stroke-dasharray: none; stroke-linecap: butt; stroke-dashoffset: 0; stroke-linejoin: miter; stroke-miterlimit: 4; fill: rgb(32,33,36); fill-rule: nonzero; opacity: 1;" vector-effect="non-scaling-stroke" transform=" translate(-1029.3130998249, -306.1413426325)" d="M 1000.51 330.2 Q 997.34 328.06 996.06 325.19 Q 994.01 320.57 994.26 311.99 Q 994.5 303.88 994.5 295.75 Q 994.5 292.96 995.61 288.83 Q 997.4 282.17 1003.75 280.25 Q 1007.73 279.05 1013 279.04 Q 1030.37 279 1047.75 279 Q 1048.72 279 1052.09 279.6 Q 1054.76 280.08 1056.3 280.78 Q 1063.21 283.93 1063.81 292.25 Q 1064.51 301.98 1064.46 311.75 Q 1064.43 318.97 1063 323.75 Q 1061.13 329.99 1055 331.75 Q 1051.29 332.82 1046.75 332.86 Q 1031.75 333 1016.75 333.24 Q 1010.25 333.35 1004.43 331.93 Q 1002.31 331.42 1000.51 330.2 Z M 1042.2373 298.6576 C 1042.2351801243442 297.43493405784534 1041.7474371151945 296.2631891277213 1040.8813720814087 295.40014344107925 C 1040.015307047623 294.5370977544371 1038.841865889332 294.05344987397604 1037.6192 294.0556 L 1021.1192 294.0844 C 1019.8965513999498 294.08654636728903 1018.7248321542719 294.5743010639315 1017.8618080858962 295.4403632230757 C 1016.9987840175205 296.3064253822199 1016.5151498581205 297.47985140658193 1016.5173 298.7025 L 1016.5427 313.2824 C 1016.5448198756557 314.50506594215466 1017.0325628848055 315.67681087227874 1017.8986279185913 316.53985655892086 C 1018.764692952377 317.4029022455629 1019.9381341106681 317.886550126024 1021.1608 317.8844 L 1037.6608 317.8556 C 1038.8834486000503 317.8534536327109 1040.0551678457282 317.3656989360685 1040.9181919141038 316.49963677692426 C 1041.7812159824796 315.63357461778 1042.2648501418796 314.46014859341807 1042.2627 313.2375 L 1042.2373 298.6576 Z" stroke-linecap="round"/>
</g>
<g transform="matrix(0.5600962566 0 0 0.5600962566 596.5046041426 326.7094602449)" id="fQtDd8HMwKVRn0LaZds3K">
<path style="stroke: none; stroke-width: 1; stroke-dasharray: none; stroke-linecap: butt; stroke-dashoffset: 0; stroke-linejoin: miter; stroke-miterlimit: 4; fill: rgb(32,33,36); fill-rule: nonzero; opacity: 1;" vector-effect="non-scaling-stroke" transform=" translate(-1112.3571421804, -316.9791199559)" d="M 1099.31 332.06 L 1099.25 354.12 C 1099.25 354.60601057985104 1098.8604877323528 354.99999999999994 1098.38 355 L 1078.27 355 C 1077.982811930088 355 1077.75 354.76718806991204 1077.75 354.48 L 1077.75 279.64 C 1077.75 279.47026144650266 1077.817428377834 279.3074749422473 1077.9374516600406 279.18745166004055 C 1078.0574749422474 279.06742837783383 1078.2202614465027 279 1078.39 279 L 1093.69 279.05 C 1093.9978662251326 279.0567260913027 1094.3153673528707 279.1533568693099 1094.61 279.33 Q 1097.1 280.81 1099.75 280.5 Q 1114.2 278.84 1128.75 279.06 Q 1132.9 279.12 1136.88 280.25 Q 1143.13 282.01 1145.25 287.25 Q 1147.04 291.69 1146.92 298.25 Q 1146.75 307.5 1146.61 316.75 Q 1146.44 328.54 1135.75 331.75 Q 1131.31 333.08 1125 332.96 Q 1112.39 332.72 1099.81 331.61 C 1099.6822558202975 331.5957152697824 1099.5545005490567 331.63674128446706 1099.4589572379869 331.7227302644299 C 1099.363413926917 331.80871924439276 1099.3092038009677 331.93146208717917 1099.31 332.06 Z M 1100.67 317.56 Q 1108.37 317.84 1116.07 317.78 Q 1120.96 317.74 1121.43 317.63 Q 1124.77 316.85 1124.86 312.5 Q 1124.97 307.6 1124.99 302.71 Q 1125.02 298 1124.84 297.31 Q 1123.99 293.95 1119.5 294.01 Q 1109.85 294.13 1100.26 295 C 1099.6945258993394 295.0521536833408 1099.263749192421 295.51774062920174 1099.27 296.07 L 1099.48 316.38 C 1099.4908626132903 317.01983537336685 1100.014429847687 317.53900288310473 1100.67 317.56 Z" stroke-linecap="round"/>
</g>
</svg>